# xmcd
#
# Track frame offsets:
#	150
#	16070
#	33262
#	50402
#	69984
#	86395
#	103888
#	121127
#	138586
#	156789
#	188515
#	210858
#
# Disc length: 3012 seconds
#
# Revision: 0
# Processed by: cddbd v1.5.2PL0 Copyright (c) Steve Scherf et al.
# Submitted via: audiograbber 1.83.01
#
DISCID=8e0bc20c
DTITLE=Various Artist - Street Beats V06 S06CD1
DYEAR=1900
DGENRE=R&B
TTITLE0=Eve - Satisfaction
TTITLE1=Toni Braxton - Hit The Freeway Ft Loon (Edit With Rap)
TTITLE2=Sugababes - Shape (Double R Remix)
TTITLE3=Dyanna Fearon - Take Our Time
TTITLE4=GZA - Legend Of The Liquid Sword Ft Allen Anthony
TTITLE5=Un-Cut - Midnight
TTITLE6=Novel - The First Chapter (Better Days)
TTITLE7=Vikter Duplaix - Looking For Love (58th St Mix)
TTITLE8=Andrew Roachford - The Pressure
TTITLE9=DJ Spinna Ft Shaun Escoffrey - Music In Me (Come Alive)
TTITLE10=Vicki Young - Now That We're Together
TTITLE11=Wayne Marshall and Elephant Man - We Thugging
EXTD=
EXTT0=
EXTT1=
EXTT2=
EXTT3=
EXTT4=
EXTT5=
EXTT6=
EXTT7=
EXTT8=
EXTT9=
EXTT10=
EXTT11=
PLAYORDER=
